<svg width="144" height="144" viewBox="0 0 144 144" xmlns="http://www.w3.org/2000/svg">
  <defs>
    <linearGradient id="grad1" x1="0%" y1="0%" x2="100%" y2="100%">
      <stop offset="0%" style="stop-color:#252525;stop-opacity:1" />
      <stop offset="100%" style="stop-color:#666;stop-opacity:1" />
    </linearGradient>
  </defs>
  
  <!-- Фон -->
  <rect width="144" height="144" rx="24" fill="#fffef2"/>
  
  <!-- Основной символ - книга/документ -->
  <rect x="32" y="28" width="80" height="88" rx="8" fill="url(#grad1)"/>
  
  <!-- Линии текста -->
  <rect x="40" y="40" width="64" height="4" rx="2" fill="#fffef2"/>
  <rect x="40" y="52" width="56" height="4" rx="2" fill="#fffef2"/>
  <rect x="40" y="64" width="60" height="4" rx="2" fill="#fffef2"/>
  <rect x="40" y="76" width="48" height="4" rx="2" fill="#fffef2"/>
  <rect x="40" y="88" width="52" height="4" rx="2" fill="#fffef2"/>
  
  <!-- Иконка мозга/ИИ -->
  <circle cx="72" cy="108" r="16" fill="#f8f8f8" stroke="#252525" stroke-width="2"/>
  <path d="M68 100 Q72 96 76 100 Q72 104 68 100" fill="#252525"/>
  <circle cx="68" cy="108" r="2" fill="#252525"/>
  <circle cx="76" cy="108" r="2" fill="#252525"/>
  
  <!-- Акцентный элемент -->
  <circle cx="120" cy="24" r="8" fill="#ff6b6b"/>
</svg>
