<svg width="48" height="48" viewBox="0 0 48 48" fill="none" xmlns="http://www.w3.org/2000/svg">
  <!-- Фон -->
  <circle cx="24" cy="24" r="24" fill="#f8f8f8"/>
  
  <!-- Венок из листьев и цветов -->
  <g opacity="0.8">
    <!-- Листья -->
    <path d="M12 20 Q16 16 20 18 Q24 20 28 18 Q32 16 36 20" stroke="#90EE90" stroke-width="1" fill="none"/>
    <path d="M14 22 Q18 18 22 20 Q26 22 30 20 Q34 18 38 22" stroke="#90EE90" stroke-width="1" fill="none"/>
    <path d="M16 24 Q20 20 24 22 Q28 24 32 22 Q36 20 40 24" stroke="#90EE90" stroke-width="1" fill="none"/>
    
    <!-- Цветы -->
    <circle cx="16" cy="18" r="2" fill="#FFB6C1"/>
    <circle cx="32" cy="18" r="2" fill="#FFB6C1"/>
    <circle cx="24" cy="16" r="2" fill="#FFB6C1"/>
    
    <!-- Звездочки -->
    <path d="M18 14 L19 16 L21 16 L19.5 17.5 L20.5 19.5 L18 18 L15.5 19.5 L16.5 17.5 L15 16 L17 14 Z" fill="#FFD700"/>
    <path d="M30 14 L31 16 L33 16 L31.5 17.5 L32.5 19.5 L30 18 L27.5 19.5 L28.5 17.5 L27 16 L29 14 Z" fill="#FFD700"/>
  </g>
  
  <!-- Книги -->
  <rect x="18" y="26" width="12" height="8" rx="1" fill="#8B4513"/>
  <rect x="17" y="27" width="12" height="8" rx="1" fill="#D2B48C"/>
  
  <!-- Лента на книгах -->
  <rect x="18" y="30" width="12" height="2" fill="#FFD700"/>
  
  <!-- Диплом/свиток -->
  <rect x="14" y="28" width="3" height="6" rx="1" fill="#F5F5DC"/>
  <rect x="14.5" y="28.5" width="2" height="5" rx="0.5" fill="#F5F5DC"/>
  <rect x="15" y="29" width="1" height="3" fill="#FFFFFF"/>
  
  <!-- Шапочка -->
  <rect x="20" y="22" width="8" height="2" fill="#1E90FF"/>
  <rect x="19" y="24" width="10" height="1" fill="#1E90FF"/>
  <path d="M19 24 L24 20 L29 24" fill="#1E90FF"/>
  
  <!-- Кисточка -->
  <circle cx="24" cy="20" r="1" fill="#DAA520"/>
  <path d="M24 20 Q26 22 28 21" stroke="#DAA520" stroke-width="1" fill="none"/>
  
  <!-- Звезда на шапочке -->
  <path d="M24 21 L24.5 21.5 L25 21 L24.5 20.5 Z" fill="#FFD700"/>
  <circle cx="24.5" cy="21" r="0.3" fill="#FFD700"/>
  
  <!-- Кольцо на шапочке -->
  <circle cx="24.5" cy="21" r="1.5" fill="none" stroke="#FFD700" stroke-width="0.5"/>
</svg>
